<svg width="56" height="56" viewBox="0 0 56 56" fill="none" xmlns="http://www.w3.org/2000/svg">
<rect width="56" height="56" fill="#04B3EF"/>
<path d="M28 24C29.5913 24 31.1174 23.3679 32.2426 22.2426C33.3678 21.1174 34 19.5913 34 18C34 16.4087 33.3678 14.8826 32.2426 13.7574C31.1174 12.6321 29.5913 12 28 12C26.4087 12 24.8825 12.6321 23.7573 13.7574C22.6321 14.8826 22 16.4087 22 18C22 19.5913 22.6321 21.1174 23.7573 22.2426C24.8825 23.3679 26.4087 24 28 24ZM14.93 36.988C14.7453 37.4837 14.7253 38.0258 14.873 38.5338C15.0207 39.0418 15.3282 39.4886 15.75 39.808C19.2524 42.5308 23.5637 44.0062 28 44C32.62 44 36.876 42.432 40.262 39.8C41.122 39.134 41.47 37.994 41.078 36.98C40.0624 34.336 38.2691 32.0622 35.9346 30.4584C33.6001 28.8547 30.8342 27.9966 28.0019 27.9972C25.1696 27.9979 22.4041 28.8573 20.0704 30.4621C17.7366 32.0669 15.9443 34.3416 14.93 36.986" fill="#EAEDEF"/>
</svg>
